<?xml version="1.0" encoding="UTF-8"?><svg id="a" xmlns="http://www.w3.org/2000/svg" viewBox="0 0 387.65 159.29"><defs><style>.b{fill:#ecbb43;}.c{fill:#fefefe;}.d{fill:#181612;}.e{fill:#1a1814;}</style></defs><g><path class="d" d="M349.62,156.04c-14.38,.74-28.69-.09-43-1.41-2.88-.27-5.81-.21-8.69,0-8.09,.56-16.17,.5-24.26-.04-2.88-.19-5.83-.26-8.68,.12-8.67,1.13-17.34,1.31-26.05,.79-7.63-.45-15.26-.31-22.89,.08-9,.46-18,.83-27,.05-5.51-.47-10.97,.53-16.45,.78-1.98,.09-3.98,.42-5.94,.28-20.91-1.45-41.81,1.27-62.73,.22-3.65-.18-7.33,.04-10.98,.33-7.77,.61-15.54,.9-23.34,.67-5.8-.17-11.59,.2-17.38,.69-9.6,.81-19.21,.89-28.84,.37-4.42-.24-8.83-.57-13.27-.22-3.4,.27-5.11-.93-6.28-4.09-.48-1.28-.82-2.64-.98-3.99-1.16-9.37-2.71-18.66-2.68-28.21,.03-8.22,.41-16.46-.07-24.71-.28-4.85,.15-9.78,.52-14.6,.84-11.03-.32-21.98-.19-32.96,.09-7.77-.32-15.56,.61-23.31,.2-1.65,.11-3.36-.05-5.03-.6-6.17,2.04-10.16,7.73-12.52,6.3-2.62,12.82-4.25,19.59-4.15,20.32,.28,40.56-1.53,60.88-1.67,14.16-.1,28.39,0,42.51-.76,20.6-1.12,41.23-.11,61.79-1.8,3.49-.29,7.03-.18,10.53-.01,10.09,.46,20.14-.26,30.2-.79,6.57-.34,13.12-.07,19.66,.65,5.17,.57,10.37,.48,15.55-.05,5.18-.54,10.36-.57,15.54,0,7.92,.87,15.85,.88,23.77,.02,4.12-.45,8.24-.52,12.35-.12,8.07,.79,16.15,.91,24.25,.74,11.18-.23,22.21,1.74,33.32,2.52,4.59,.32,6.33,2.45,6.82,7.1,.8,7.59,1.9,15.15,2.14,22.79,.13,4.11-.15,8.23-.19,12.33-.12,12.05-.1,24.1-.47,36.16-.58,18.76-1.98,37.49-2.22,56.26-.05,3.96,.37,7.89-.25,11.86-.7,4.52-1.97,6.15-6.51,6.7-3.5,.42-7.02,.25-10.52-.07-5.94-.53-11.88-.89-17.83-1.01ZM42.98,15.74c-4.43,0-8.86,.02-13.28,0-3.67-.02-7.32,.07-10.96,.6-2.18,.31-3.08,1.25-3.21,3.53-.63,11.26-1.57,22.51-2.07,33.78-.22,5.03-1.56,10-.88,15.06,.41,3.05,.41,6.09,.28,9.15-.27,6.71,.16,13.41,.04,20.13-.14,8.2-.16,16.46-.16,24.67,0,8.73,1.87,17.3,1.35,26.01-.11,1.88,.73,2.71,2.74,2.67,6.72-.15,13.44,.05,20.15-.24,14.64-.64,29.24-2.17,43.92-1.53,1.67,.07,3.36-.02,5.03-.19,8.07-.81,16.15-.9,24.25-.67,8.85,.25,17.72,.48,26.56-.23,6.41-.52,12.82-.67,19.22-.2,7.51,.55,14.95,0,22.39-.81,1.97-.21,3.96-.49,5.93-.43,21.84,.64,43.61-2.67,65.45-1.08,13.37-1.71,26.8-.84,40.21-1.11,9.94-.2,19.82-.28,29.73,.45,3.81,.28,7.63,.77,11.42,.67,12.08-.32,24.12,.02,36.15,1.1,3.55,.32,3.69,.11,3.47-3.43-.35-5.63-.68-11.29-.78-16.91-.14-8.07,.6-16.16,1.04-24.24,.55-10.05,1.98-20.04,2.27-30.11,.35-12.05,.89-24.1,1.1-36.16,.11-6.1-.37-12.21-.49-18.32-.04-1.82-.56-2.79-2.57-2.92-8.52-.56-16.95-2.28-25.54-2.07-7.64,.18-15.27,.02-22.88-.75-6.4-.65-12.78-.74-19.2-.2-3.94,.33-7.92,.18-11.88-.31-8.19-1.03-16.41-1.64-24.67-.85-3.51,.34-7.01,.23-10.52,.02-7.91-.47-15.79-1.75-23.77-.95-9.44,.94-18.91,1.06-28.37,.83-5.82-.14-11.61,.1-17.37,.86-4.71,.63-9.44,.98-14.16,.78-21.4-.93-42.66,2.79-64.06,1.79-.76-.04-1.53,.05-2.28,.15-9.73,1.28-19.49,1.28-29.27,.93-3.2-.11-6.43-.18-9.61,.13-8.23,.82-16.47,.63-24.71,.43Z"/><path class="b" d="M42.98,15.74c8.24,.2,16.49,.39,24.71-.43,3.18-.32,6.41-.25,9.61-.13,9.78,.35,19.54,.35,29.27-.93,.76-.1,1.53-.18,2.28-.15,21.4,1.01,42.66-2.72,64.06-1.79,4.72,.21,9.45-.15,14.16-.78,5.75-.77,11.55-1.01,17.37-.86,9.47,.23,18.94,.11,28.37-.83,7.97-.8,15.85,.48,23.77,.95,3.51,.21,7.01,.31,10.52-.02,8.26-.79,16.48-.18,24.67,.85,3.96,.5,7.94,.65,11.88,.31,6.42-.54,12.8-.45,19.2,.2,7.61,.77,15.24,.93,22.88,.75,8.59-.21,17.02,1.51,25.54,2.07,2.01,.13,2.54,1.1,2.57,2.92,.12,6.11,.6,12.22,.49,18.32-.21,12.05-.75,24.1-1.1,36.16-.29,10.07-1.72,20.06-2.27,30.11-.44,8.08-1.18,16.17-1.04,24.24,.1,5.62,.43,11.28,.78,16.91,.22,3.54,.07,3.74-3.47,3.43-12.03-1.08-24.07-1.42-36.15-1.1-3.8,.1-7.62-.39-11.42-.67-9.9-.73-19.79-.65-29.73-.45-13.41,.27-26.83-.6-40.21,1.11-21.85-1.59-43.62,1.72-65.45,1.08-1.97-.06-3.96,.22-5.93,.43-7.45,.81-14.88,1.37-22.39,.81-6.4-.47-12.81-.32-19.22,.2-8.84,.71-17.7,.49-26.56,.23-8.1-.23-16.18-.14-24.25,.67-1.67,.17-3.36,.26-5.03,.19-14.68-.64-29.29,.89-43.92,1.53-6.71,.29-13.43,.09-20.15,.24-2.01,.04-2.86-.78-2.74-2.67,.52-8.71-1.35-17.28-1.35-26.01,0-8.21,.01-16.47,.16-24.67,.12-6.72-.32-13.42-.04-20.13,.12-3.06,.13-6.1-.28-9.15-.68-5.06,.66-10.03,.88-15.06,.49-11.27,1.44-22.52,2.07-33.78,.13-2.28,1.03-3.21,3.21-3.53,3.65-.53,7.3-.62,10.96-.6,4.43,.02,8.86,0,13.28,0Zm278.55,120.42c6.12,.3,12.52,.61,18.92,.92,3.05,.15,6.11,.37,9.14-.12,3.22-.53,3.91-1.54,4.66-4.66,.89-3.66,.03-7.3,.28-10.94,.41-5.94,.79-11.88,.9-17.83,.15-7.46,.67-14.91,.91-22.37,.54-17.24,1.36-34.45-1.13-51.62-.63-4.32-1.67-5.56-5.92-6.18-2.26-.33-4.58-.19-6.85-.48-15.8-2.01-31.73-.87-47.56-2.11-1.06-.08-2.14,.03-3.2,.12-16,1.36-32.02-.82-48.02,.23-.45,.03-.91-.05-1.37-.1-7-.85-14.04-.75-21.04-.25-6.11,.43-12.2,.55-18.31,.4-14.35-.36-28.7,.39-43.02,.83-19.07,.6-38.14,.4-57.21,1.01-17.53,.56-35.07,1.56-52.64,1.33-5.83-.08-11.49,1.35-16.93,3.55-3.88,1.57-5.82,4.28-5.48,8.51,.17,2.14-.12,4.26-.21,6.4-.22,5.18-.37,10.37-.28,15.55,.14,7.78,.8,15.54,.24,23.34-.26,3.63-.45,7.3-.53,10.94-.18,7.77-.35,15.56,.09,23.31,.34,6.07,1.22,12.16,2.71,18.09,.87,3.44,2.45,4.55,5.99,4.3,2.91-.2,5.79-.11,8.69,.07,7.63,.5,15.28,.71,22.89,.08,14.93-1.22,29.9-.92,44.85-1.38,23.63-.72,47.29-.63,70.94-.88,17.39-.18,34.8-.88,52.21-.14,4.57,.19,9.17,.26,13.72-.4,3.34-.48,6.69-.68,10.05-.5,7.48,.41,14.95,.42,22.43,.04,2.59-.13,5.2-.15,7.78,.07,10.65,.92,21.31,1.65,32.31,.86Z"/><path class="e" d="M321.53,136.15c-11,.79-21.65,.06-32.31-.86-2.58-.22-5.19-.2-7.78-.07-7.48,.37-14.95,.37-22.43-.04-3.36-.18-6.7,.01-10.05,.5-4.55,.66-9.15,.59-13.72,.4-17.4-.74-34.82-.04-52.21,.14-23.65,.25-47.31,.16-70.94,.88-14.94,.45-29.92,.15-44.85,1.38-7.61,.62-15.26,.41-22.89-.08-2.9-.19-5.78-.27-8.69-.07-3.54,.24-5.12-.87-5.99-4.3-1.49-5.93-2.37-12.02-2.71-18.09-.44-7.75-.26-15.54-.09-23.31,.08-3.65,.27-7.31,.53-10.94,.56-7.81-.1-15.56-.24-23.34-.09-5.18,.06-10.37,.28-15.55,.09-2.13,.38-4.25,.21-6.4-.34-4.23,1.6-6.94,5.48-8.51,5.44-2.2,11.1-3.63,16.93-3.55,17.57,.23,35.11-.77,52.64-1.33,19.07-.61,38.14-.41,57.21-1.01,14.31-.45,28.66-1.19,43.02-.83,6.1,.15,12.2,.04,18.31-.4,7-.5,14.04-.6,21.04,.25,.45,.06,.92,.13,1.37,.1,16-1.05,32.02,1.13,48.02-.23,1.06-.09,2.14-.2,3.2-.12,15.83,1.24,31.76,.1,47.56,2.11,2.27,.29,4.59,.15,6.85,.48,4.25,.62,5.3,1.87,5.92,6.18,2.49,17.17,1.67,34.38,1.13,51.62-.23,7.46-.76,14.9-.91,22.37-.12,5.95-.5,11.89-.9,17.83-.25,3.64,.6,7.28-.28,10.94-.76,3.12-1.45,4.13-4.66,4.66-3.03,.5-6.09,.27-9.14,.12-6.4-.31-12.81-.62-18.92-.92ZM97.05,31.95v-.23c-3.05,0-6.12-.16-9.16,.03-12.51,.79-25.03,.73-37.56,.42-2.43-.06-4.87,.3-7.31,.46-1.98,.13-2.9,1.02-3,3.17-.28,5.93-.91,11.85-1.19,17.78-.35,7.31-1.55,14.56-1.09,21.94,.25,4.09,.53,8.25,.33,12.35-.67,13.89-.41,27.74,.71,41.59,.26,3.22,.23,3.16,3.48,3.23,19.41,.44,38.75-1.84,58.16-1.37,1.67,.04,3.36-.15,5.03-.29,5.03-.43,10.07-.39,15.11-.21,16.95,.61,33.89-.87,50.84-.26,.46,.02,.92-.01,1.37-.08,7.59-1.08,15.23-.89,22.87-.89,4.12,0,8.26-.09,12.36-.43,16.45-1.38,32.96-.02,49.44-1.26,8.47-.64,17.08,.1,25.64-.15,4.11-.12,8.26-.03,12.36,.35,14.77,1.34,29.63-.02,44.4,1.52,2.81,.29,2.87-.06,2.73-3.19-.26-6.1-.81-12.17-.56-18.3,.6-14.34,2.8-28.55,3.02-42.92,.16-10.22,1.04-20.42,.19-30.65-.18-2.1-.71-2.96-2.9-3.05-3.81-.17-7.6-.8-11.41-.96-13.12-.54-26.24-.96-39.36-1.41-.76-.03-1.53,.07-2.29,.09-15.41,.28-30.79-1.46-46.21-.81-.3,.01-.61-.04-.91-.08-7.46-.92-14.94-.63-22.42-.25-3.96,.2-7.94,.47-11.9,.43-17.56-.18-35.08,1.72-52.65,1.26-1.07-.03-2.14,.04-3.2,.15-16.27,1.74-32.67,.57-48.96,2.02-1.97,.18-3.97,.02-5.95,.02Z"/><path class="c" d="M97.05,31.95c1.99,0,3.98,.15,5.95-.02,16.29-1.46,32.68-.29,48.96-2.02,1.06-.11,2.14-.18,3.2-.15,17.57,.46,35.08-1.44,52.65-1.26,3.97,.04,7.94-.23,11.9-.43,7.48-.38,14.96-.66,22.42,.25,.3,.04,.61,.09,.91,.08,15.42-.65,30.8,1.09,46.21,.81,.76-.01,1.53-.11,2.29-.09,13.12,.45,26.24,.87,39.36,1.41,3.81,.16,7.6,.79,11.41,.96,2.18,.1,2.72,.95,2.9,3.05,.86,10.23-.03,20.43-.19,30.65-.22,14.38-2.42,28.59-3.02,42.92-.25,6.12,.29,12.2,.56,18.3,.14,3.14,.08,3.49-2.73,3.19-14.77-1.55-29.63-.19-44.4-1.52-4.1-.37-8.25-.47-12.36-.35-8.55,.26-17.17-.49-25.64,.15-16.48,1.24-32.98-.12-49.44,1.26-4.1,.34-8.24,.42-12.36,.43-7.64,0-15.28-.19-22.87,.89-.45,.06-.92,.09-1.37,.08-16.95-.6-33.89,.88-50.84,.26-5.04-.18-10.08-.22-15.11,.21-1.67,.14-3.36,.33-5.03,.29-19.41-.47-38.75,1.81-58.16,1.37-3.26-.07-3.22-.01-3.48-3.23-1.12-13.85-1.38-27.7-.71-41.59,.2-4.1-.08-8.25-.33-12.35-.46-7.38,.74-14.63,1.09-21.94,.28-5.93,.91-11.85,1.19-17.78,.1-2.15,1.02-3.04,3-3.17,2.44-.16,4.88-.52,7.31-.46,12.53,.32,25.04,.38,37.56-.42,3.04-.19,6.11-.03,9.16-.03v.23Z"/></g><g><path d="M122.8,91.56c-.39-.34-.93-.8-1.6-1.39-.67-.59-1.21-1.02-1.6-1.3-.28-.22-1.04-.77-2.27-1.64-1.23-.87-2.16-1.56-2.77-2.06-2.47-2.24-3.7-4.79-3.7-7.65,0-3.87,1.93-6.87,5.8-9,1.46-.9,3.03-1.35,4.71-1.35,1.23,0,2.47,.25,3.7,.76,1.79,.73,2.89,1.88,3.28,3.45,.06,.22,.08,.5,.08,.84,0,.95-.39,1.65-1.18,2.1-.39,.22-.76,.34-1.09,.34-.56,0-1.12-.22-1.68-.67-.73-.45-1.37-.67-1.93-.67-.9,0-1.71,.35-2.44,1.05-.73,.7-1.15,1.5-1.26,2.4v.25c0,.95,.48,1.77,1.43,2.44,2.35,1.46,3.7,2.33,4.04,2.61,3.03,2.13,4.99,3.67,5.89,4.63,1.74,1.91,2.61,3.84,2.61,5.8,0,3.31-2.02,5.75-6.06,7.32-2.24,.84-4.51,1.26-6.81,1.26-1.85,0-3.56-.2-5.13-.59-1.68-.34-2.86-1.21-3.53-2.61-.17-.39-.25-.81-.25-1.26,0-1.57,.87-2.38,2.61-2.44,.9-.06,3.17-.56,6.81-1.51l2.35-1.18v.08Z"/><path d="M155.17,89.88c1.68,.67,3.59,1.01,5.72,1.01,.73,0,1.82-.05,3.28-.17,1.12-.11,2.66-.31,4.62-.59,1.96-.28,3.31-.48,4.04-.59,2.91-.22,5.13-.34,6.64-.34,1.85,.11,2.78,.7,2.78,1.77,0,.5-.25,1.09-.76,1.77-.95,1.35-2.02,2.3-3.2,2.86-5.83,2.92-11.55,4.37-17.16,4.37-1.91,0-4.04-.22-6.39-.67-3.14-.56-5.61-1.85-7.4-3.87-1.79-2.02-2.69-4.43-2.69-7.23,0-1.01,.06-1.77,.17-2.27,1.46-8.47,5.94-14.63,13.46-18.5,2.35-1.18,4.6-1.77,6.73-1.77,.73,0,1.51,.08,2.35,.25,2.02,.39,3.64,1.21,4.88,2.44,1.23,1.23,1.85,2.66,1.85,4.29,0,1.23-.39,2.5-1.18,3.78-.84,1.4-2.02,2.8-3.53,4.2-3.31,3.25-7.09,5.83-11.35,7.74-1.01,.56-1.96,1.07-2.86,1.51Zm.25-8.41c2.35-1.06,4.46-2.42,6.31-4.08,1.85-1.65,2.94-3.12,3.28-4.42-2.19,.11-4.23,1-6.14,2.65-1.91,1.65-3.06,3.6-3.45,5.84Z"/><path d="M200.67,72.13c.45-.45,.99-1.02,1.64-1.72,.64-.7,1.11-1.19,1.39-1.47,2.63-2.63,5.35-3.95,8.16-3.95,4.09,0,6.95,2.55,8.58,7.65,.73,2.24,1.23,4.91,1.51,7.99,.34,3.48,.78,6.03,1.35,7.65,.05,.17,.21,1.01,.46,2.52,.25,1.51,.52,2.5,.8,2.94,.11,.11,.29,.81,.55,2.1,.25,1.29,.38,2.16,.38,2.61v.17c-.95,.56-1.99,.84-3.11,.84-1.4,0-2.61-.48-3.62-1.43-.34-.28-.69-.8-1.05-1.56s-.64-1.43-.84-2.02c-.2-.59-.45-1.39-.76-2.4-.31-1.01-.49-1.57-.55-1.68-.56-1.46-1.79-5.55-3.7-12.28-.28-1.23-.62-2.49-1.01-3.78-1.29,1.29-2.02,2.05-2.19,2.27-2.19,3.14-3.73,7.23-4.63,12.28-.17,.67-.31,1.39-.42,2.14-.11,.76-.22,1.6-.34,2.52s-.2,1.64-.25,2.14c-.34,1.57-.65,2.72-.92,3.45-.79,1.79-2.19,2.69-4.21,2.69h-.42c-2.07-.11-3.45-1.18-4.12-3.2-.22-.67-.34-1.46-.34-2.35l.76-24.22c0-.9,.17-1.57,.5-2.02,.67-1.01,1.4-1.65,2.19-1.93,.17-.06,.39-.08,.67-.08,.78,0,1.51,.53,2.19,1.6,.28,.45,.73,1.29,1.35,2.52Z"/><path d="M259.53,68.18c.11-1.12,.29-3.54,.55-7.27,.25-3.73,.46-6.57,.63-8.54,.22-2.47,.64-4.9,1.26-7.32,.5-2.3,1.77-3.5,3.79-3.62,2.19,0,3.5,1.26,3.95,3.78,.62,3.59,.92,7.01,.92,10.26,0,1.46-.11,3.65-.34,6.56-.22,2.13-.48,3.67-.76,4.62-.67,2.24-1.01,4.79-1.01,7.65,0,3.42,.7,8.1,2.1,14.04,.5,2.19,1.16,3.9,1.98,5.13,.81,1.23,2.17,2.61,4.08,4.12-.9,2.19-2.24,3.28-4.04,3.28-.22,0-.67-.06-1.35-.17-2.35-.34-4.15-1.43-5.38-3.28-.56-.78-1.71-2.86-3.45-6.22-.17-.34-.64-1.51-1.43-3.53-.28,.34-.69,.84-1.22,1.51-.53,.67-.97,1.18-1.3,1.51-.28,.34-.91,1.05-1.89,2.14-.98,1.09-1.81,1.99-2.48,2.69s-1.4,1.33-2.19,1.89c-2.19,1.63-4.51,2.44-6.98,2.44-2.13,0-4.08-.64-5.84-1.93-1.77-1.29-3.04-3.06-3.83-5.3-.62-1.85-.92-3.73-.92-5.63,0-3.42,.76-6.81,2.27-10.18,1.51-3.36,3.53-6.03,6.05-7.99,.9-.67,1.79-1.23,2.69-1.68,2.19-1.18,4.32-1.77,6.39-1.77,2.47,0,5.05,.92,7.74,2.77Zm.08,2.69c-1.57,.62-2.47,.93-2.69,.93s-.58-.03-1.05-.08c-.48-.06-.86-.06-1.13,0-1.46,.11-2.75,.34-3.87,.67-2.58,.84-4.57,2.62-5.97,5.34-1.4,2.72-2.1,5.54-2.1,8.45,0,1.57,.25,2.86,.76,3.87,.45,.84,.98,1.26,1.6,1.26,.39,0,.84-.17,1.35-.5,.67-.5,1.2-.98,1.6-1.43,4.76-5.27,8.61-11.44,11.52-18.5Z"/></g></svg>