<?xml version="1.0" encoding="UTF-8"?><svg id="a" xmlns="http://www.w3.org/2000/svg" viewBox="0 0 387.65 159.29"><defs><style>.b{fill:#ecbb43;}.c{fill:#fefefe;}.d{fill:#181612;}.e{fill:#1a1814;}</style></defs><g><path class="d" d="M349.62,156.04c-14.38,.74-28.69-.09-43-1.41-2.88-.27-5.81-.21-8.69,0-8.09,.56-16.17,.5-24.26-.04-2.88-.19-5.83-.26-8.68,.12-8.67,1.13-17.34,1.31-26.05,.79-7.63-.45-15.26-.31-22.89,.08-9,.46-18,.83-27,.05-5.51-.47-10.97,.53-16.45,.78-1.98,.09-3.98,.42-5.94,.28-20.91-1.45-41.81,1.27-62.73,.22-3.65-.18-7.33,.04-10.98,.33-7.77,.61-15.54,.9-23.34,.67-5.8-.17-11.59,.2-17.38,.69-9.6,.81-19.21,.89-28.84,.37-4.42-.24-8.83-.57-13.27-.22-3.4,.27-5.11-.93-6.28-4.09-.48-1.28-.82-2.64-.98-3.99-1.16-9.37-2.71-18.66-2.68-28.21,.03-8.22,.41-16.46-.07-24.71-.28-4.85,.15-9.78,.52-14.6,.84-11.03-.32-21.98-.19-32.96,.09-7.77-.32-15.56,.61-23.31,.2-1.65,.11-3.36-.05-5.03-.6-6.17,2.04-10.16,7.73-12.52,6.3-2.62,12.82-4.25,19.59-4.15,20.32,.28,40.56-1.53,60.88-1.67,14.16-.1,28.39,0,42.51-.76,20.6-1.12,41.23-.11,61.79-1.8,3.49-.29,7.03-.18,10.53-.01,10.09,.46,20.14-.26,30.2-.79,6.57-.34,13.12-.07,19.66,.65,5.17,.57,10.37,.48,15.55-.05,5.18-.54,10.36-.57,15.54,0,7.92,.87,15.85,.88,23.77,.02,4.12-.45,8.24-.52,12.35-.12,8.07,.79,16.15,.91,24.25,.74,11.18-.23,22.21,1.74,33.32,2.52,4.59,.32,6.33,2.45,6.82,7.1,.8,7.59,1.9,15.15,2.14,22.79,.13,4.11-.15,8.23-.19,12.33-.12,12.05-.1,24.1-.47,36.16-.58,18.76-1.98,37.49-2.22,56.26-.05,3.96,.37,7.89-.25,11.86-.7,4.52-1.97,6.15-6.51,6.7-3.5,.42-7.02,.25-10.52-.07-5.94-.53-11.88-.89-17.83-1.01ZM42.98,15.74c-4.43,0-8.86,.02-13.28,0-3.67-.02-7.32,.07-10.96,.6-2.18,.31-3.08,1.25-3.21,3.53-.63,11.26-1.57,22.51-2.07,33.78-.22,5.03-1.56,10-.88,15.06,.41,3.05,.41,6.09,.28,9.15-.27,6.71,.16,13.41,.04,20.13-.14,8.2-.16,16.46-.16,24.67,0,8.73,1.87,17.3,1.35,26.01-.11,1.88,.73,2.71,2.74,2.67,6.72-.15,13.44,.05,20.15-.24,14.64-.64,29.24-2.17,43.92-1.53,1.67,.07,3.36-.02,5.03-.19,8.07-.81,16.15-.9,24.25-.67,8.85,.25,17.72,.48,26.56-.23,6.41-.52,12.82-.67,19.22-.2,7.51,.55,14.95,0,22.39-.81,1.97-.21,3.96-.49,5.93-.43,21.84,.64,43.61-2.67,65.45-1.08,13.37-1.71,26.8-.84,40.21-1.11,9.94-.2,19.82-.28,29.73,.45,3.81,.28,7.63,.77,11.42,.67,12.08-.32,24.12,.02,36.15,1.1,3.55,.32,3.69,.11,3.47-3.43-.35-5.63-.68-11.29-.78-16.91-.14-8.07,.6-16.16,1.04-24.24,.55-10.05,1.98-20.04,2.27-30.11,.35-12.05,.89-24.1,1.1-36.16,.11-6.1-.37-12.21-.49-18.32-.04-1.82-.56-2.79-2.57-2.92-8.52-.56-16.95-2.28-25.54-2.07-7.64,.18-15.27,.02-22.88-.75-6.4-.65-12.78-.74-19.2-.2-3.94,.33-7.92,.18-11.88-.31-8.19-1.03-16.41-1.64-24.67-.85-3.51,.34-7.01,.23-10.52,.02-7.91-.47-15.79-1.75-23.77-.95-9.44,.94-18.91,1.06-28.37,.83-5.82-.14-11.61,.1-17.37,.86-4.71,.63-9.44,.98-14.16,.78-21.4-.93-42.66,2.79-64.06,1.79-.76-.04-1.53,.05-2.28,.15-9.73,1.28-19.49,1.28-29.27,.93-3.2-.11-6.43-.18-9.61,.13-8.23,.82-16.47,.63-24.71,.43Z"/><path class="b" d="M42.98,15.74c8.24,.2,16.49,.39,24.71-.43,3.18-.32,6.41-.25,9.61-.13,9.78,.35,19.54,.35,29.27-.93,.76-.1,1.53-.18,2.28-.15,21.4,1.01,42.66-2.72,64.06-1.79,4.72,.21,9.45-.15,14.16-.78,5.75-.77,11.55-1.01,17.37-.86,9.47,.23,18.94,.11,28.37-.83,7.97-.8,15.85,.48,23.77,.95,3.51,.21,7.01,.31,10.52-.02,8.26-.79,16.48-.18,24.67,.85,3.96,.5,7.94,.65,11.88,.31,6.42-.54,12.8-.45,19.2,.2,7.61,.77,15.24,.93,22.88,.75,8.59-.21,17.02,1.51,25.54,2.07,2.01,.13,2.54,1.1,2.57,2.92,.12,6.11,.6,12.22,.49,18.32-.21,12.05-.75,24.1-1.1,36.16-.29,10.07-1.72,20.06-2.27,30.11-.44,8.08-1.18,16.17-1.04,24.24,.1,5.62,.43,11.28,.78,16.91,.22,3.54,.07,3.74-3.47,3.43-12.03-1.08-24.07-1.42-36.15-1.1-3.8,.1-7.62-.39-11.42-.67-9.9-.73-19.79-.65-29.73-.45-13.41,.27-26.83-.6-40.21,1.11-21.85-1.59-43.62,1.72-65.45,1.08-1.97-.06-3.96,.22-5.93,.43-7.45,.81-14.88,1.37-22.39,.81-6.4-.47-12.81-.32-19.22,.2-8.84,.71-17.7,.49-26.56,.23-8.1-.23-16.18-.14-24.25,.67-1.67,.17-3.36,.26-5.03,.19-14.68-.64-29.29,.89-43.92,1.53-6.71,.29-13.43,.09-20.15,.24-2.01,.04-2.86-.78-2.74-2.67,.52-8.71-1.35-17.28-1.35-26.01,0-8.21,.01-16.47,.16-24.67,.12-6.72-.32-13.42-.04-20.13,.12-3.06,.13-6.1-.28-9.15-.68-5.06,.66-10.03,.88-15.06,.49-11.27,1.44-22.52,2.07-33.78,.13-2.28,1.03-3.21,3.21-3.53,3.65-.53,7.3-.62,10.96-.6,4.43,.02,8.86,0,13.28,0Zm278.55,120.42c6.12,.3,12.52,.61,18.92,.92,3.05,.15,6.11,.37,9.14-.12,3.22-.53,3.91-1.54,4.66-4.66,.89-3.66,.03-7.3,.28-10.94,.41-5.94,.79-11.88,.9-17.83,.15-7.46,.67-14.91,.91-22.37,.54-17.24,1.36-34.45-1.13-51.62-.63-4.32-1.67-5.56-5.92-6.18-2.26-.33-4.58-.19-6.85-.48-15.8-2.01-31.73-.87-47.56-2.11-1.06-.08-2.14,.03-3.2,.12-16,1.36-32.02-.82-48.02,.23-.45,.03-.91-.05-1.37-.1-7-.85-14.04-.75-21.04-.25-6.11,.43-12.2,.55-18.31,.4-14.35-.36-28.7,.39-43.02,.83-19.07,.6-38.14,.4-57.21,1.01-17.53,.56-35.07,1.56-52.64,1.33-5.83-.08-11.49,1.35-16.93,3.55-3.88,1.57-5.82,4.28-5.48,8.51,.17,2.14-.12,4.26-.21,6.4-.22,5.18-.37,10.37-.28,15.55,.14,7.78,.8,15.54,.24,23.34-.26,3.63-.45,7.3-.53,10.94-.18,7.77-.35,15.56,.09,23.31,.34,6.07,1.22,12.16,2.71,18.09,.87,3.44,2.45,4.55,5.99,4.3,2.91-.2,5.79-.11,8.69,.07,7.63,.5,15.28,.71,22.89,.08,14.93-1.22,29.9-.92,44.85-1.38,23.63-.72,47.29-.63,70.94-.88,17.39-.18,34.8-.88,52.21-.14,4.57,.19,9.17,.26,13.72-.4,3.34-.48,6.69-.68,10.05-.5,7.48,.41,14.95,.42,22.43,.04,2.59-.13,5.2-.15,7.78,.07,10.65,.92,21.31,1.65,32.31,.86Z"/><path class="e" d="M321.53,136.15c-11,.79-21.65,.06-32.31-.86-2.58-.22-5.19-.2-7.78-.07-7.48,.37-14.95,.37-22.43-.04-3.36-.18-6.7,.01-10.05,.5-4.55,.66-9.15,.59-13.72,.4-17.4-.74-34.82-.04-52.21,.14-23.65,.25-47.31,.16-70.94,.88-14.94,.45-29.92,.15-44.85,1.38-7.61,.62-15.26,.41-22.89-.08-2.9-.19-5.78-.27-8.69-.07-3.54,.24-5.12-.87-5.99-4.3-1.49-5.93-2.37-12.02-2.71-18.09-.44-7.75-.26-15.54-.09-23.31,.08-3.65,.27-7.31,.53-10.94,.56-7.81-.1-15.56-.24-23.34-.09-5.18,.06-10.37,.28-15.55,.09-2.13,.38-4.25,.21-6.4-.34-4.23,1.6-6.94,5.48-8.51,5.44-2.2,11.1-3.63,16.93-3.55,17.57,.23,35.11-.77,52.64-1.33,19.07-.61,38.14-.41,57.21-1.01,14.31-.45,28.66-1.19,43.02-.83,6.1,.15,12.2,.04,18.31-.4,7-.5,14.04-.6,21.04,.25,.45,.06,.92,.13,1.37,.1,16-1.05,32.02,1.13,48.02-.23,1.06-.09,2.14-.2,3.2-.12,15.83,1.24,31.76,.1,47.56,2.11,2.27,.29,4.59,.15,6.85,.48,4.25,.62,5.3,1.87,5.92,6.18,2.49,17.17,1.67,34.38,1.13,51.62-.23,7.46-.76,14.9-.91,22.37-.12,5.95-.5,11.89-.9,17.83-.25,3.64,.6,7.28-.28,10.94-.76,3.12-1.45,4.13-4.66,4.66-3.03,.5-6.09,.27-9.14,.12-6.4-.31-12.81-.62-18.92-.92ZM97.05,31.95v-.23c-3.05,0-6.12-.16-9.16,.03-12.51,.79-25.03,.73-37.56,.42-2.43-.06-4.87,.3-7.31,.46-1.98,.13-2.9,1.02-3,3.17-.28,5.93-.91,11.85-1.19,17.78-.35,7.31-1.55,14.56-1.09,21.94,.25,4.09,.53,8.25,.33,12.35-.67,13.89-.41,27.74,.71,41.59,.26,3.22,.23,3.16,3.48,3.23,19.41,.44,38.75-1.84,58.16-1.37,1.67,.04,3.36-.15,5.03-.29,5.03-.43,10.07-.39,15.11-.21,16.95,.61,33.89-.87,50.84-.26,.46,.02,.92-.01,1.37-.08,7.59-1.08,15.23-.89,22.87-.89,4.12,0,8.26-.09,12.36-.43,16.45-1.38,32.96-.02,49.44-1.26,8.47-.64,17.08,.1,25.64-.15,4.11-.12,8.26-.03,12.36,.35,14.77,1.34,29.63-.02,44.4,1.52,2.81,.29,2.87-.06,2.73-3.19-.26-6.1-.81-12.17-.56-18.3,.6-14.34,2.8-28.55,3.02-42.92,.16-10.22,1.04-20.42,.19-30.65-.18-2.1-.71-2.96-2.9-3.05-3.81-.17-7.6-.8-11.41-.96-13.12-.54-26.24-.96-39.36-1.41-.76-.03-1.53,.07-2.29,.09-15.41,.28-30.79-1.46-46.21-.81-.3,.01-.61-.04-.91-.08-7.46-.92-14.94-.63-22.42-.25-3.96,.2-7.94,.47-11.9,.43-17.56-.18-35.08,1.72-52.65,1.26-1.07-.03-2.14,.04-3.2,.15-16.27,1.74-32.67,.57-48.96,2.02-1.97,.18-3.97,.02-5.95,.02Z"/><path class="c" d="M97.05,31.95c1.99,0,3.98,.15,5.95-.02,16.29-1.46,32.68-.29,48.96-2.02,1.06-.11,2.14-.18,3.2-.15,17.57,.46,35.08-1.44,52.65-1.26,3.97,.04,7.94-.23,11.9-.43,7.48-.38,14.96-.66,22.42,.25,.3,.04,.61,.09,.91,.08,15.42-.65,30.8,1.09,46.21,.81,.76-.01,1.53-.11,2.29-.09,13.12,.45,26.24,.87,39.36,1.41,3.81,.16,7.6,.79,11.41,.96,2.18,.1,2.72,.95,2.9,3.05,.86,10.23-.03,20.43-.19,30.65-.22,14.38-2.42,28.59-3.02,42.92-.25,6.12,.29,12.2,.56,18.3,.14,3.14,.08,3.49-2.73,3.19-14.77-1.55-29.63-.19-44.4-1.52-4.1-.37-8.25-.47-12.36-.35-8.55,.26-17.17-.49-25.64,.15-16.48,1.24-32.98-.12-49.44,1.26-4.1,.34-8.24,.42-12.36,.43-7.64,0-15.28-.19-22.87,.89-.45,.06-.92,.09-1.37,.08-16.95-.6-33.89,.88-50.84,.26-5.04-.18-10.08-.22-15.11,.21-1.67,.14-3.36,.33-5.03,.29-19.41-.47-38.75,1.81-58.16,1.37-3.26-.07-3.22-.01-3.48-3.23-1.12-13.85-1.38-27.7-.71-41.59,.2-4.1-.08-8.25-.33-12.35-.46-7.38,.74-14.63,1.09-21.94,.28-5.93,.91-11.85,1.19-17.78,.1-2.15,1.02-3.04,3-3.17,2.44-.16,4.88-.52,7.31-.46,12.53,.32,25.04,.38,37.56-.42,3.04-.19,6.11-.03,9.16-.03v.23Z"/></g><g><path d="M89.23,89.28c-.25-.22-.6-.51-1.03-.89s-.78-.66-1.03-.84c-.18-.14-.67-.49-1.46-1.05-.79-.56-1.39-1-1.79-1.33-1.59-1.44-2.38-3.09-2.38-4.93,0-2.49,1.24-4.42,3.74-5.79,.94-.58,1.95-.87,3.03-.87,.79,0,1.59,.16,2.38,.49,1.15,.47,1.86,1.21,2.11,2.22,.04,.14,.05,.33,.05,.54,0,.61-.25,1.06-.76,1.35-.25,.14-.49,.22-.7,.22-.36,0-.72-.14-1.08-.43-.47-.29-.88-.43-1.25-.43-.58,0-1.1,.23-1.57,.68-.47,.45-.74,.97-.81,1.54v.16c0,.61,.31,1.14,.92,1.57,1.52,.94,2.38,1.5,2.6,1.68,1.95,1.37,3.21,2.36,3.79,2.98,1.12,1.23,1.68,2.47,1.68,3.74,0,2.13-1.3,3.7-3.9,4.71-1.44,.54-2.91,.81-4.38,.81-1.19,0-2.29-.13-3.3-.38-1.08-.22-1.84-.78-2.27-1.68-.11-.25-.16-.52-.16-.81,0-1.01,.56-1.53,1.68-1.57,.58-.04,2.04-.36,4.38-.97l1.52-.76v.05Z"/><path d="M112.02,78.77s.23-.29,.57-.76c.34-.47,.62-.79,.84-.97,.22-.22,.7-.69,1.46-1.43,.76-.74,1.4-1.34,1.92-1.79,.52-.45,1.06-.84,1.6-1.16,1.26-.76,2.49-1.14,3.68-1.14,2.35,0,4.13,1.21,5.36,3.63,.69,1.34,1.35,3.52,2,6.55,.18,.72,.34,1.73,.49,3.03s.25,2.18,.33,2.65c.29,1.73,.97,2.81,2.06,3.25,.54,.18,.81,.52,.81,1.03,0,.29-.09,.61-.27,.97-.76,1.44-1.99,2.16-3.68,2.16-.87,0-1.71-.27-2.54-.81-1.44-.9-2.42-2.22-2.92-3.95-.11-.4-.56-2.63-1.35-6.71-.07-.25-.14-.73-.19-1.43-.05-.7-.16-1.32-.32-1.84-.16-.52-.42-1.02-.78-1.49-.94,.79-1.59,1.37-1.95,1.73-1.59,1.73-2.87,3.99-3.84,6.77-.18,.51-.43,1.26-.76,2.27s-.58,1.77-.76,2.27c-.32,.98-.65,1.79-.97,2.44-.76,1.34-1.81,2-3.14,2h-.38c-1.59-.18-2.56-1.08-2.92-2.71-.36-1.48-.56-2.9-.6-4.28,0-1.26,.02-3.17,.05-5.71,.04-2.54,.05-4.45,.05-5.71,0-4.01-.07-10.05-.22-18.14,0-.11,0-.28-.03-.51-.02-.23-.03-.42-.03-.57,0-.36,.05-.7,.16-1.03,.25-.94,.63-1.46,1.14-1.57h.32c.83,0,1.41,.22,1.73,.65,.69,.94,1.08,1.88,1.19,2.82,.47,4.4,.83,8.43,1.08,12.07,.04,.54,.05,1.34,.05,2.38,0,.54,0,1.34-.03,2.38-.02,1.05-.03,1.84-.03,2.38,.07,.04,.2,.08,.38,.14,.18,.05,.33,.1,.43,.13Z"/><path d="M159.01,84.03c-.18,3.14-.96,5.76-2.33,7.85-1.55,2.49-3.65,3.74-6.28,3.74-1.62,0-3.23-.51-4.82-1.52-3.97-2.49-5.96-5.65-5.96-9.47,0-2.53,.87-5,2.6-7.42,.4-.54,.81-.9,1.25-1.08,.36-.18,.7-.27,1.03-.27,.43,0,.79,.13,1.08,.41,.29,.27,.43,.62,.43,1.06v.16c-.04,.22-.12,.51-.24,.89-.13,.38-.21,.64-.24,.78-.58,2.63-.87,4.35-.87,5.14,0,2.42,1.37,4.44,4.11,6.06,.47,.29,.94,.43,1.41,.43,.61,0,1.12-.36,1.52-1.08,1.08-1.98,1.62-3.95,1.62-5.9,0-2.13-.61-4.24-1.84-6.33-.4-.76-1.17-1.14-2.33-1.14h-.27c-.97,0-1.46-.4-1.46-1.19v-.27c.07-.65,.36-1.22,.87-1.71,.51-.49,1.12-.75,1.84-.78h.43c1.08,0,2.07,.16,2.98,.49,1.34,.47,2.47,1.53,3.41,3.19,1.3,2.42,1.98,5.07,2.06,7.96Z"/><path d="M169.94,77.26c.18-.22,.48-.56,.89-1.03,.41-.47,.75-.83,1-1.08,1.48-1.48,3.12-2.22,4.93-2.22,2.49,0,4.42,1.26,5.79,3.79,.94,1.77,1.41,3.59,1.41,5.47,0,3.75-1.41,6.78-4.22,9.09-2.35,1.95-4.58,2.92-6.71,2.92h-.43c-.14,0-.47,.05-.97,.16v2.16c.11,2.17,.27,5.45,.49,9.85,0,1.23-.09,2.15-.27,2.76-.32,1.41-1.21,2.15-2.65,2.22h-.16c-1.44,0-2.42-.67-2.92-2-.25-.76-.42-1.53-.49-2.33-.29-3.18-.43-6.14-.43-8.88s.13-5.32,.38-7.74c.14-1.41,.3-3.45,.46-6.12,.16-2.67,.26-4.31,.3-4.93,0-.25,.04-.63,.11-1.14,.22-1.08,.76-1.62,1.62-1.62,.32,0,.65,.07,.97,.22,.11,.04,.41,.18,.92,.43Zm6.23,2.65c-.94,.69-1.88,2.05-2.81,4.09-.94,2.04-1.41,3.73-1.41,5.06,0,.07,0,.16,.03,.27,.02,.11,.03,.18,.03,.22,1.48-.58,2.69-1.53,3.63-2.87,.94-1.33,1.41-2.69,1.41-4.06,0-1.08-.29-1.98-.87-2.71Z"/><path d="M239.72,91.77c-.72,1.26-1.95,2.04-3.68,2.33-.58,.07-.99,.11-1.25,.11-1.81,0-3.41-.65-4.82-1.95-.07-.07-1.14-1.28-3.2-3.63-.11,.11-.29,.32-.54,.65-.25,.33-.47,.58-.65,.76-1.91,2.09-3.09,3.34-3.52,3.74-.69,.61-1.57,1.14-2.65,1.57-.61,.22-1.19,.32-1.73,.32-.94,0-1.75-.27-2.44-.81-.69-.54-1.12-1.28-1.3-2.22-.15-.58-.22-1.23-.22-1.95,0-.65,.04-1.14,.11-1.46,.98-5.2,2.9-9.51,5.79-12.94,.79-.9,1.97-1.97,3.52-3.19,1.01-.79,2.18-1.19,3.52-1.19h.38c2.09,.07,3.14,1.08,3.14,3.03,0,.58,.09,.96,.27,1.14,.72,.69,1.08,1.53,1.08,2.54,0,.47-.06,.92-.16,1.35-.11,.65-.16,1.28-.16,1.89,0,2.31,.81,4.73,2.44,7.25,1.05,1.59,2.45,2.38,4.22,2.38,.36,0,.63-.02,.81-.05,.11,0,.45,.11,1.03,.32Zm-12.78-15.97c-1.77,.76-3.52,2.6-5.25,5.52s-2.6,5.38-2.6,7.36c0,.47,.04,.81,.11,1.03,.36-.22,.58-.36,.65-.43,1.44-1.91,3.16-4.2,5.14-6.87,.29-.4,.43-.87,.43-1.41,.22-2.38,.72-4.11,1.52-5.2Z"/><path d="M253.85,77.91c-.07,1.23-.21,3.31-.41,6.25-.2,2.94-.35,5.19-.46,6.74-.11,1.23-.34,2.26-.7,3.09-.43,.97-1.03,1.46-1.79,1.46-.79,0-1.41-.47-1.84-1.41-.36-.76-.58-1.62-.65-2.6-.22-7.43-.32-13.03-.32-16.78,0-.97,.03-2,.08-3.09,.05-1.08,.13-2.28,.22-3.6,.09-1.32,.15-2.34,.19-3.06,.07-1.01,.16-1.77,.27-2.27,.32-1.52,1.05-2.27,2.16-2.27s1.82,.74,2.22,2.22c.18,.72,.31,1.53,.38,2.44,.07,1.08,.17,3.05,.3,5.9,.13,2.85,.24,5.18,.35,6.98Z"/><path d="M271.66,77.91c-.07,1.23-.21,3.31-.41,6.25-.2,2.94-.35,5.19-.46,6.74-.11,1.23-.34,2.26-.7,3.09-.43,.97-1.03,1.46-1.79,1.46-.79,0-1.41-.47-1.84-1.41-.36-.76-.58-1.62-.65-2.6-.22-7.43-.32-13.03-.32-16.78,0-.97,.03-2,.08-3.09,.05-1.08,.13-2.28,.22-3.6,.09-1.32,.15-2.34,.19-3.06,.07-1.01,.16-1.77,.27-2.27,.32-1.52,1.05-2.27,2.16-2.27s1.82,.74,2.22,2.22c.18,.72,.31,1.53,.38,2.44,.07,1.08,.17,3.05,.3,5.9,.13,2.85,.24,5.18,.35,6.98Z"/><path d="M290.5,91.28c-.04,.72-.35,1.34-.95,1.87-.6,.52-1.29,.78-2.08,.78-.69,0-1.26-.2-1.73-.6-.47-.4-.7-.9-.7-1.52v-.16c.04-.76,.33-1.4,.89-1.92s1.24-.79,2.03-.79h.16c.69,.04,1.25,.27,1.71,.7,.45,.43,.68,.96,.68,1.57v.05Zm1.24-20.73h-.11c-.43,5.85-.72,9.44-.87,10.77-.14,1.05-.45,1.88-.92,2.49-.47,.61-1.19,.92-2.16,.92-.9,0-1.44-.43-1.62-1.3-.25-.9-.38-1.7-.38-2.38v-.22c.11-2.02,.23-4.18,.38-6.47,.14-2.29,.31-4.85,.49-7.66s.32-4.98,.43-6.5c.07-.87,.3-1.55,.68-2.06,.38-.51,.75-.79,1.11-.87l.54-.11c.54,0,1.08,.26,1.62,.79,.54,.52,.81,1.25,.81,2.19v10.39Z"/></g></svg>