<?xml version="1.0" encoding="UTF-8"?><svg id="a" xmlns="http://www.w3.org/2000/svg" viewBox="0 0 577.91 345.8"><defs><style>.b{fill:#97d0d3;}</style></defs><path class="b" d="M176.43,8.3c17.44-.01,34.89-.02,52.33-.04,.89,.78,1.8,.74,2.72,.05,6.54,.35,13.07,.69,19.63,.49,1.26,.84,2.53,.78,3.81,.06,7.26,.51,14.53,.61,21.8,.48,2.35,.88,4.72,.8,7.08,.06,19.58,.97,39.17,.41,58.76,.56,4.34,.03,8.67,.38,12.98,.94,.98,.13,1.99,.08,2.99,.11,5.43,.12,10.87-.1,16.29,.51,.52,.7,1.07,.7,1.63,.06,1.84-.04,3.6,.73,5.45,.51,.34,.53,.7,.57,1.09,.06,7.4,.97,14.88-.01,22.26,.67,7.46,.69,14.54-1.2,21.77-2.04,4.48-.52,8.94-1.27,13.4-1.94,3.04-.45,6.09-.78,9.08-1.52,4.48-1.12,9.08-1.54,13.64-2.19,3.76-.54,7.41-1.58,11.2-1.99,6.64-.72,13.19-2.03,19.87-2.59,9.7-.81,19.4-.55,29.08-.29,6.21,.16,12.41,1.28,18.38,3.23,4.03,1.31,7.55,3.48,10.56,6.48,4.63,4.6,9.35,9.14,12.92,14.65,3.98,6.14,6.85,12.68,7.63,20.12,.46,4.39,1.29,8.76,1.47,13.19,0,.18,0,.36-.01,.54-1.03,2.46-.26,5.04-.48,7.55-.05,.61-.06,1.25,.49,1.71,.18,1.85-.23,3.64-.49,5.45-.54,.34-.59,.7-.05,1.09-.23,4.88-.46,9.76-.69,14.64-1.21,.56-1.12,1.35-.41,2.26-.79,4.64-.23,9.36-.94,14.01-.27,1.77-.1,3.61-.11,5.41-.05,6.23-.09,12.47-.14,18.7-1.73,1.31-1.03,2.86-.44,4.4-.44,4.2-.68,8.42-1.59,12.55-.25,.08-.67,.1-.74,.26-.97,2.5-1.88,5.02-1.98,7.73-.05,1.44-.25,2.84-.42,4.26-.13,1.14-1.27,2.33-.2,3.55-.04,.35-.09,.7-.13,1.04-.63,.2-1.16,.44-.42,1.14-1.32,5.46-1.38,11.12-2.55,16.61-.47,2.2-.43,4.52-.51,6.76-.24,6.43-1.08,12.84-.68,19.3,.78,12.77,2.51,25.37,6.25,37.66,2.11,6.93,4.02,13.93,5.39,21.05,.43,2.22,.95,4.44,.83,6.72-.07,1.29,.36,2.5,.53,3.76,.58,4.21,.96,8.45,1.69,12.63,.87,4.94,.7,9.94,1.19,14.87,.48,4.86,.14,9.57-.64,14.29-1.52,9.16-8.29,17.1-17,19.27-4.76,1.19-9.44,1.04-14.27,.66-6.31-.5-12.51-1.81-18.89-1.99-6.85-.19-13.69-1.04-20.52-1.87-4.21-.51-8.47-.94-12.74-.71-4.82,.26-9.7,.04-14.37-.71-8.25-1.33-16.48-.76-24.71-.79-7.12-.02-14.19,.65-21.25,1.81-4.48,.74-8.84,1.89-13.28,2.71-.53,.1-1.07,.22-1.61,.23-7.78,.25-15.5,1.23-23.23,2.11-3.32,.38-6.69,.22-10.03,.59-4.31,.48-8.64,.72-12.92,1.52-2.67,.5-5.45,.54-8.12,.55-5.91,.01-11.77,.68-17.66,.79-2.52,.04-5.01,.21-7.55,.07-6.98-.37-13.86-1.3-20.72-2.53-4.53-.82-9.13-1.26-13.67-2.02-4.38-.73-8.81-.99-13.21-1.41-2.96-.28-5.96-.37-8.95,.17-2.76,.5-5.6,.36-8.39,.57-3.69,.28-7.4,.57-11.11,.8-12.88,.8-25.77,.64-38.65,.37-5.22-.11-10.47-.55-15.66-1.4-3.65-.6-7.36-.99-11.06-1.14-4.08-.17-8.09-.92-12.13-1.37-3.24-.36-6.49-.35-9.73-.81-11.35-1.63-22.81-1.25-34.22-1.04-6.95,.12-13.9,.53-20.85,1.28-6.3,.68-12.55,1.67-18.82,2.49-4.21,.55-8.37,1.45-12.55,2.22-6.57,1.21-13.15,2.42-19.71,3.69-2.93,.57-5.86,1.18-8.73,1.99-3.18,.89-6.46,.87-9.69,1.13-3.24,.26-6.49,.63-9.75,.68-9.42,.14-17.42-3.33-23.88-9.99-5.99-6.17-9.84-13.62-11.61-22.1-.81-3.9-1.95-7.72-2.34-11.71-.54-5.49-1.5-10.95-.47-16.5,.28-1.5,.12-3.08,.11-4.63-.03-5.36,.44-10.63,1.48-15.92,1.2-6.12,2.06-12.3,1.87-18.61-.23-7.81,.2-15.64-.2-23.44-.22-4.33-.51-8.69-.6-13.02-.07-3.67,0-7.42,.41-11.11,.08-.72,.34-1.46,.24-2.15-.86-5.8,.49-11.58,.11-17.36-.1-1.57,.39-3.05,.55-4.58,.59-5.66,.93-11.35,2.02-16.96,.17-.88,.21-1.82,.15-2.72-.28-4.48,.94-8.81,1.26-13.24,.08-1.07,.29-2.14,.33-3.23,.07-1.9-.09-3.81,.46-5.68,.15-.5,.15-1.1,.04-1.62-.73-3.51-.21-7.07-.49-10.59-.82-10.27-1.27-20.58-3.35-30.73-1.18-5.75-1.73-11.62-2.64-17.43-.35-2.23-.95-4.42-1.42-6.63-.85-3.98-1.63-7.96-1.87-12.05-.17-2.88-.85-5.72-1.25-8.58-.48-3.4,.05-6.52,1.07-9.6,.91-2.75,1.68-5.54,2.82-8.22,1.68-3.98,3.99-7.35,7.17-10.4,2.39-2.29,5.09-4.03,7.6-6.08,3.33-2.74,7.47-3.6,11.46-4.78,6.45-1.91,13.07-2.77,19.75-3.38,5.86-.53,11.73-1.16,17.62-.92,9.77,.4,19.55,.26,29.31,.57,5.22,.17,10.46,.72,15.67,1.35,2.6,.32,5.2,.64,7.83,.8,4.6,.27,9.2,.57,13.77,1.32,3.21,.53,6.5,.5,9.75,.68,5.61,.3,11.16,1.13,16.75,1.57,3.94,.31,7.89,1.34,11.89,.28,.85-.23,1.81-.06,2.71-.08,.38,.5,.74,.48,1.09-.03Z"/></svg>