<?xml version="1.0" encoding="UTF-8"?><svg id="a" xmlns="http://www.w3.org/2000/svg" viewBox="0 0 370 983.33"><defs><style>.b{fill:#97d0d3;}</style></defs><path class="b" d="M361.12,300.2c.01,29.68,.03,59.36,.04,89.04-.83,1.52-.79,3.07-.05,4.63-.38,11.12-.73,22.25-.52,33.39-.9,2.14-.84,4.3-.06,6.49-.54,12.35-.66,24.72-.52,37.1-.94,4-.86,8.02-.06,12.05-1.03,33.31-.44,66.65-.6,99.98-.04,7.38-.41,14.75-1.01,22.08-.14,1.68-.09,3.39-.11,5.09-.13,9.24,.11,18.5-.54,27.72-.75,.89-.75,1.81-.06,2.78,.04,3.12-.78,6.12-.54,9.27-.57,.57-.61,1.19-.06,1.85-1.03,12.6,.01,25.32-.72,37.88-.74,12.69,1.29,24.73,2.18,37.04,.56,7.63,1.36,15.21,2.07,22.81,.48,5.16,.83,10.36,1.63,15.45,1.2,7.62,1.65,15.46,2.35,23.21,.58,6.4,1.7,12.61,2.13,19.06,.77,11.3,2.17,22.45,2.77,33.82,.87,16.51,.59,33.01,.31,49.48-.18,10.57-1.37,21.11-3.45,31.27-1.4,6.86-3.73,12.85-6.93,17.98-4.92,7.88-9.78,15.91-15.68,21.99-6.57,6.77-13.56,11.66-21.53,12.99-4.7,.79-9.37,2.19-14.11,2.5-.19,.01-.39-.01-.58-.02-2.63-1.75-5.39-.44-8.08-.82-.66-.09-1.34-.1-1.83,.84-1.98,.3-3.9-.4-5.84-.84-.36-.93-.75-1-1.17-.08-5.22-.39-10.45-.79-15.67-1.18-.6-2.06-1.45-1.91-2.42-.69-4.96-1.35-10.01-.39-14.99-1.59-1.89-.46-3.86-.17-5.79-.19-6.67-.09-13.34-.16-20.01-.24-1.4-2.94-3.06-1.74-4.71-.75-4.49-.75-9.01-1.16-13.43-2.71-.09-.43-.11-1.15-.28-1.25-2.67-1.65-5.37-3.21-8.27-3.36-1.54-.08-3.04-.43-4.56-.72-1.22-.23-2.49-2.16-3.8-.33-.37-.07-.74-.15-1.12-.22-.21-1.07-.47-1.97-1.22-.71-5.85-2.24-11.9-2.35-17.77-4.34-2.35-.8-4.84-.73-7.23-.87-6.88-.41-13.74-1.83-20.65-1.16-13.67,1.33-27.15,4.28-40.3,10.64-7.42,3.59-14.9,6.83-22.53,9.18-2.37,.73-4.75,1.62-7.19,1.41-1.38-.12-2.68,.62-4.02,.91-4.51,.98-9.05,1.63-13.52,2.88-5.28,1.48-10.63,1.19-15.91,2.03-5.2,.83-10.23,.24-15.29-1.1-9.8-2.59-18.3-14.1-20.62-28.92-1.27-8.09-1.11-16.07-.7-24.29,.53-10.74,1.94-21.29,2.12-32.15,.2-11.65,1.11-23.3,2-34.92,.55-7.16,1.01-14.41,.76-21.68-.28-8.2-.04-16.5,.76-24.46,1.42-14.04,.82-28.03,.85-42.04,.03-12.11-.69-24.15-1.93-36.16-.79-7.62-2.03-15.04-2.9-22.6-.11-.91-.23-1.82-.25-2.73-.27-13.25-1.31-26.37-2.26-39.52-.4-5.65-.23-11.38-.64-17.07-.52-7.33-.77-14.71-1.63-21.99-.53-4.55-.58-9.27-.58-13.81-.01-10.05-.73-20.02-.84-30.05-.05-4.28-.22-8.52-.08-12.85,.39-11.87,1.39-23.58,2.71-35.26,.87-7.71,1.35-15.53,2.16-23.26,.79-7.45,1.06-14.98,1.51-22.48,.3-5.04,.4-10.14-.18-15.23-.53-4.7-.38-9.52-.61-14.28-.3-6.28-.61-12.6-.86-18.9-.85-21.92-.68-43.84-.4-65.76,.11-8.88,.59-17.81,1.49-26.65,.64-6.22,1.06-12.52,1.22-18.82,.19-6.95,.99-13.77,1.47-20.65,.38-5.51,.37-11.04,.87-16.56,1.74-19.32,1.33-38.81,1.12-58.23-.13-11.82-.57-23.65-1.37-35.47-.72-10.72-1.79-21.35-2.66-32.02-.59-7.16-1.55-14.25-2.38-21.36-1.3-11.19-2.59-22.38-3.95-33.54-.61-4.98-1.27-9.97-2.13-14.86-.95-5.42-.93-11-1.21-16.48C.45,81.33,.06,75.8,0,70.24c-.15-16.04,3.56-29.63,10.69-40.63,6.61-10.19,14.58-16.75,23.65-19.76,4.17-1.38,8.26-3.31,12.53-3.98,5.88-.92,11.72-2.55,17.65-.8,1.6,.47,3.3,.2,4.95,.18,5.73-.05,11.38,.75,17.04,2.52,6.54,2.04,13.16,3.5,19.91,3.18,8.35-.4,16.74,.34,25.08-.35,4.64-.38,9.3-.86,13.93-1.01,3.93-.13,7.94-.01,11.89,.69,.77,.14,1.56,.59,2.3,.41,6.2-1.46,12.39,.83,18.58,.18,1.68-.18,3.27,.66,4.9,.93,6.06,1,12.15,1.59,18.14,3.44,.94,.29,1.94,.36,2.91,.26,4.79-.47,9.43,1.6,14.16,2.14,1.14,.13,2.29,.5,3.46,.56,2.03,.11,4.08-.16,6.08,.78,.54,.25,1.18,.26,1.74,.07,3.75-1.24,7.56-.35,11.33-.83,10.99-1.4,22.02-2.16,32.88-5.71,6.15-2.01,12.43-2.94,18.64-4.5,2.39-.6,4.73-1.61,7.1-2.42,4.26-1.45,8.52-2.78,12.89-3.18,3.08-.28,6.12-1.44,9.18-2.13,3.64-.82,6.98,.08,10.28,1.82,2.94,1.54,5.93,2.87,8.8,4.79,4.26,2.86,7.87,6.78,11.13,12.19,2.45,4.06,4.31,8.67,6.51,12.92,2.93,5.66,3.85,12.71,5.11,19.49,2.04,10.97,2.97,22.25,3.62,33.61,.57,9.98,1.24,19.96,.98,29.98-.42,16.62-.28,33.26-.61,49.88-.18,8.89-.77,17.79-1.45,26.66-.34,4.42-.69,8.85-.85,13.33-.29,7.82-.61,15.65-1.41,23.42-.56,5.46-.54,11.06-.73,16.58-.32,9.55-1.21,18.99-1.68,28.49-.34,6.71-1.44,13.43-.3,20.23,.24,1.45,.07,3.07,.08,4.62-.54,.64-.52,1.26,.03,1.86Z"/></svg>